<svg width="84" height="18" viewBox="0 0 84 18" fill="none" xmlns="http://www.w3.org/2000/svg">
<path d="M0.0546875 13.7501V1.15039H2.35824V11.5902H7.94267V13.7501H0.0546875Z" fill="#3A5088"/>
<path d="M12.9161 14.0021C12.0552 14.0021 11.2815 13.8221 10.5951 13.4621C9.90863 13.1022 9.36766 12.5802 8.97211 11.8962C8.57656 11.2122 8.37878 10.3902 8.37878 9.43022V9.14222C8.37878 8.18223 8.57656 7.36024 8.97211 6.67626C9.36766 5.99227 9.90863 5.47027 10.5951 5.11026C11.2815 4.75032 12.0552 4.57031 12.9161 4.57031C13.7771 4.57031 14.5508 4.75032 15.2372 5.11026C15.9236 5.47027 16.4645 5.99227 16.8602 6.67626C17.2557 7.36024 17.4535 8.18223 17.4535 9.14222V9.43022C17.4535 10.3902 17.2557 11.2122 16.8602 11.8962C16.4645 12.5802 15.9236 13.1022 15.2372 13.4621C14.5508 13.8221 13.7771 14.0021 12.9161 14.0021ZM12.9161 11.9861C13.5909 11.9861 14.1494 11.7641 14.5915 11.3202C15.0335 10.8642 15.2546 10.2162 15.2546 9.37622V9.19621C15.2546 8.3562 15.0335 7.71422 14.5915 7.2702C14.161 6.81426 13.6025 6.58621 12.9161 6.58621C12.2414 6.58621 11.6829 6.81426 11.2408 7.2702C10.7987 7.71422 10.5776 8.3562 10.5776 9.19621V9.37622C10.5776 10.2162 10.7987 10.8642 11.2408 11.3202C11.6829 11.7641 12.2414 11.9861 12.9161 11.9861Z" fill="#3A5088"/>
<path d="M18.2791 9.32223V9.03423C18.2791 8.09822 18.4594 7.30021 18.82 6.64021C19.1807 5.96829 19.6577 5.45828 20.251 5.11026C20.856 4.75032 21.5134 4.57031 22.2231 4.57031C23.0142 4.57031 23.6133 4.71427 24.0205 5.00227C24.4278 5.29027 24.7244 5.59025 24.9105 5.90223H25.2247V4.82226H27.3887V15.334C27.3887 15.9461 27.2142 16.432 26.8651 16.792C26.5161 17.1641 26.0508 17.35 25.469 17.35H19.6752V15.3701H24.7011C25.0269 15.3701 25.1898 15.1901 25.1898 14.8301V12.5081H24.8757C24.7594 12.7001 24.5964 12.8981 24.387 13.1022C24.1776 13.2941 23.8984 13.4561 23.5494 13.5881C23.2003 13.7201 22.7583 13.7861 22.2231 13.7861C21.5134 13.7861 20.856 13.6121 20.251 13.2641C19.6577 12.9041 19.1807 12.3941 18.82 11.7341C18.4594 11.0622 18.2791 10.2582 18.2791 9.32223ZM22.8513 11.8061C23.5261 11.8061 24.0904 11.5841 24.5441 11.1402C24.9979 10.6961 25.2247 10.0722 25.2247 9.26823V9.08822C25.2247 8.27219 24.9979 7.64824 24.5441 7.2162C24.102 6.77226 23.5377 6.55024 22.8513 6.55024C22.1765 6.55024 21.6123 6.77226 21.1585 7.2162C20.7048 7.64824 20.4779 8.27219 20.4779 9.08822V9.26823C20.4779 10.0722 20.7048 10.6961 21.1585 11.1402C21.6123 11.5841 22.1765 11.8061 22.8513 11.8061Z" fill="#3A5088"/>
<path d="M33.1597 14.0021C32.2988 14.0021 31.5251 13.8221 30.8386 13.4621C30.1522 13.1022 29.6113 12.5802 29.2157 11.8962C28.8202 11.2122 28.6223 10.3902 28.6223 9.43022V9.14222C28.6223 8.18223 28.8202 7.36024 29.2157 6.67626C29.6113 5.99227 30.1522 5.47027 30.8386 5.11026C31.5251 4.75032 32.2988 4.57031 33.1597 4.57031C34.0207 4.57031 34.7943 4.75032 35.4808 5.11026C36.1672 5.47027 36.7081 5.99227 37.1038 6.67626C37.4993 7.36024 37.6971 8.18223 37.6971 9.14222V9.43022C37.6971 10.3902 37.4993 11.2122 37.1038 11.8962C36.7081 12.5802 36.1672 13.1022 35.4808 13.4621C34.7943 13.8221 34.0207 14.0021 33.1597 14.0021ZM33.1597 11.9861C33.8345 11.9861 34.393 11.7641 34.835 11.3202C35.2771 10.8642 35.4982 10.2162 35.4982 9.37622V9.19621C35.4982 8.3562 35.2771 7.71422 34.835 7.2702C34.4046 6.81426 33.8461 6.58621 33.1597 6.58621C32.4849 6.58621 31.9265 6.81426 31.4844 7.2702C31.0423 7.71422 30.8212 8.3562 30.8212 9.19621V9.37622C30.8212 10.2162 31.0423 10.8642 31.4844 11.3202C31.9265 11.7641 32.4849 11.9861 33.1597 11.9861Z" fill="#3A5088"/>
<path d="M38.9414 13.7492V4.82136H41.1405V13.7492H38.9414ZM40.041 3.77744C39.645 3.77744 39.3082 3.64539 39.0285 3.38138C38.7611 3.11744 38.6273 2.76941 38.6273 2.33743C38.6273 1.90544 38.7611 1.55745 39.0285 1.29346C39.3082 1.02946 39.645 0.897461 40.041 0.897461C40.4482 0.897461 40.7857 1.02946 41.0527 1.29346C41.3205 1.55745 41.4547 1.90544 41.4547 2.33743C41.4547 2.76941 41.3205 3.11744 41.0527 3.38138C40.7857 3.64539 40.4482 3.77744 40.041 3.77744Z" fill="#3A5088"/>
<path d="M42.792 17.35V4.82226H44.9557V5.90223H45.27C45.4672 5.55428 45.7755 5.24826 46.1947 4.98425C46.6132 4.70832 47.2125 4.57031 47.9925 4.57031C48.69 4.57031 49.3357 4.75032 49.929 5.11026C50.523 5.45828 51 5.97425 51.36 6.65823C51.7207 7.34222 51.9015 8.17024 51.9015 9.14222V9.43021C51.9015 10.4022 51.7207 11.2301 51.36 11.9141C51 12.5981 50.523 13.1201 49.929 13.4801C49.3357 13.8281 48.69 14.0021 47.9925 14.0021C47.469 14.0021 47.0265 13.9361 46.6657 13.8041C46.317 13.6841 46.032 13.5281 45.8107 13.3361C45.6015 13.1321 45.4327 12.9281 45.3045 12.7241H44.9902V17.35H42.792ZM47.3287 12.0221C48.0157 12.0221 48.5797 11.8002 49.0215 11.3562C49.4752 10.9001 49.7025 10.2402 49.7025 9.37622V9.19621C49.7025 8.33222 49.4752 7.67825 49.0215 7.23423C48.5677 6.77821 48.0037 6.55024 47.3287 6.55024C46.6545 6.55024 46.0897 6.77821 45.636 7.23423C45.1822 7.67825 44.9557 8.33222 44.9557 9.19621V9.37622C44.9557 10.2402 45.1822 10.9001 45.636 11.3562C46.0897 11.8002 46.6545 12.0221 47.3287 12.0221Z" fill="#3A5088"/>
<path d="M56.73 14.0021C55.6012 14.0021 54.6765 13.7501 53.955 13.2461C53.2342 12.7421 52.7977 12.0221 52.6462 11.0862L54.6705 10.5462C54.7522 10.9662 54.8857 11.2961 55.0725 11.5362C55.2697 11.7761 55.5082 11.9502 55.788 12.0582C56.0782 12.1542 56.3925 12.2021 56.73 12.2021C57.2422 12.2021 57.6202 12.1122 57.864 11.9321C58.1085 11.7401 58.2307 11.5061 58.2307 11.2301C58.2307 10.9541 58.1145 10.7442 57.882 10.6002C57.6487 10.4442 57.2767 10.3182 56.7652 10.2222L56.2762 10.1321C55.671 10.0122 55.119 9.85018 54.6187 9.64619C54.1177 9.43022 53.7165 9.13618 53.4142 8.76418C53.112 8.39225 52.9605 7.91226 52.9605 7.32427C52.9605 6.43622 53.2747 5.75827 53.9032 5.29027C54.531 4.81027 55.3575 4.57031 56.3812 4.57031C57.3465 4.57031 58.1497 4.79225 58.7895 5.23627C59.4292 5.6803 59.8477 6.26225 60.0457 6.98228L58.0042 7.63021C57.9112 7.17428 57.7192 6.85023 57.4282 6.65823C57.1485 6.46624 56.7997 6.37024 56.3812 6.37024C55.962 6.37024 55.6425 6.44829 55.4212 6.60424C55.2 6.74828 55.0897 6.95226 55.0897 7.2162C55.0897 7.5042 55.206 7.72026 55.4385 7.86422C55.671 7.99619 55.9852 8.09822 56.3812 8.17024L56.8695 8.2602C57.5212 8.38018 58.1085 8.54224 58.632 8.74623C59.1675 8.93823 59.586 9.22019 59.889 9.5922C60.2025 9.95222 60.36 10.4442 60.36 11.0682C60.36 12.0042 60.0285 12.7302 59.3655 13.2461C58.7137 13.7501 57.8355 14.0021 56.73 14.0021Z" fill="#3A5088"/>
<path d="M64.8 13.8941C64.125 13.8941 63.5318 13.7381 63.0195 13.4261C62.5193 13.1022 62.13 12.6581 61.8503 12.0941C61.5713 11.5301 61.4318 10.8822 61.4318 10.1502V4.82227H63.6308V9.97017C63.6308 10.6422 63.7875 11.1461 64.1018 11.4822C64.4273 11.8181 64.887 11.9861 65.4803 11.9861C66.1553 11.9861 66.6788 11.7582 67.0508 11.3022C67.4235 10.8342 67.6095 10.1861 67.6095 9.3582V4.82227H69.8085V13.7501H67.644V12.5802H67.3305C67.191 12.8802 66.9285 13.1741 66.5453 13.4621C66.1613 13.7501 65.5793 13.8941 64.8 13.8941Z" fill="#3A5088"/>
<path d="M71.4697 13.7495V4.82169H73.6335V5.79367H73.9477C74.0992 5.49369 74.3497 5.2357 74.6985 5.01973C75.0472 4.79168 75.507 4.67773 76.077 4.67773C76.6935 4.67773 77.1885 4.80375 77.5605 5.0557C77.9325 5.29573 78.2175 5.61367 78.4155 6.00973H78.7297C78.9277 5.62573 79.2067 5.30772 79.5675 5.0557C79.9282 4.80375 80.4397 4.67773 81.1027 4.67773C81.6382 4.67773 82.1212 4.79771 82.5517 5.03775C82.9935 5.26572 83.343 5.6197 83.5987 6.0997C83.8665 6.5677 84 7.16164 84 7.88167V13.7495H81.801V8.04366C81.801 7.55167 81.6787 7.1857 81.435 6.94566C81.1905 6.69371 80.847 6.5677 80.4052 6.5677C79.905 6.5677 79.515 6.73564 79.236 7.07168C78.9682 7.39564 78.8347 7.86365 78.8347 8.47561V13.7495H76.6357V8.04366C76.6357 7.55167 76.5135 7.1857 76.269 6.94566C76.0245 6.69371 75.6817 6.5677 75.2392 6.5677C74.739 6.5677 74.349 6.73564 74.07 7.07168C73.8022 7.39564 73.6687 7.86365 73.6687 8.47561V13.7495H71.4697Z" fill="#3A5088"/>
</svg>
