<svg width="452" height="206" viewBox="0 0 452 206" fill="none" xmlns="http://www.w3.org/2000/svg">
<g clip-path="url(#clip0_4_6005)">
<path d="M208.265 93.0477V48.6821C208.265 34.2933 214.496 28.7776 224.562 28.7776C234.628 28.7776 240.859 34.2933 240.859 48.6821V70.5052L258.594 58.2747L272.494 65.9487V50.8404C272.494 18.7054 255.478 0.239746 224.562 0.239746C193.646 0.239746 176.63 18.7054 176.63 50.8404V115.111L208.265 93.0477Z" fill="#D9E2F3"/>
<path d="M331.69 97.604L346.549 62.5912V105.758L361.888 114.151L377.466 95.2059V2.39795H342.954L308.204 84.8939L331.69 97.604Z" fill="#D9E2F3"/>
<path d="M94.666 82.2559L104.732 95.9253L118.632 62.5912V115.83L137.326 142.209L149.788 133.576V2.39795H115.277L74.2948 99.2827L94.666 82.2559Z" fill="#D9E2F3"/>
<path d="M259.792 79.1385L241.099 92.0884V157.078C241.099 171.467 234.867 176.982 224.802 176.982C214.736 176.982 208.505 171.467 208.505 157.078V114.631L176.87 136.694V155.159C176.87 187.294 193.885 205.76 224.802 205.76C255.718 205.76 272.734 187.294 272.734 155.159V85.8533L259.792 78.8987V79.1385Z" fill="#225FAD"/>
<path d="M133.012 167.15L112.641 138.372H86.7572L96.3436 115.59L91.3107 108.396L58.9565 135.255L57.7582 138.372V167.15H118.632V203.602H149.788V167.15H164.647V145.087L133.012 167.15Z" fill="#225FAD"/>
<path d="M377.466 123.264L366.201 136.934L346.549 126.142V138.372H314.674L324.74 114.391L301.014 101.681L285.436 138.372V167.15H346.549V203.602H377.466V167.15H392.564V138.372H377.466V123.264Z" fill="#225FAD"/>
<path d="M6.23118 174.105L0 166.67L93.947 88.2514L136.367 147.965L258.833 63.0709L362.846 119.427L444.81 21.1035L452 27.3387L365.243 131.658L259.552 74.3422L133.97 161.155L92.2693 102.161L6.23118 174.105Z" fill="#225FAD"/>
</g>
<defs>
<clipPath id="clip0_4_6005">
<rect width="452" height="206" fill="white"/>
</clipPath>
</defs>
</svg>
